<?xml version="1.0" encoding="UTF-8"?>
<svg version="1.1" xmlns="http://www.w3.org/2000/svg" width="228" height="214">
<path d="M0 0 C1.08667969 -0.04350586 1.08667969 -0.04350586 2.1953125 -0.08789062 C7.51205623 -0.15165231 7.51205623 -0.15165231 9.63232422 1.86523438 C11.43183763 5.08521339 11.99287982 8.29984111 12.5703125 11.89453125 C12.69687225 12.62693527 12.82343201 13.35933929 12.9538269 14.11393738 C13.35471308 16.44931291 13.73994633 18.7869676 14.125 21.125 C14.39092295 22.6857183 14.65784005 24.24626755 14.92578125 25.80664062 C18.15082165 44.71566613 18.15082165 44.71566613 18 53.3125 C19.0828125 52.2296875 19.0828125 52.2296875 20.1875 51.125 C21.115625 50.196875 22.04375 49.26875 23 48.3125 C24.3303125 46.9203125 24.3303125 46.9203125 25.6875 45.5 C28 43.3125 28 43.3125 30 43.3125 C30.66 41.9925 31.32 40.6725 32 39.3125 C32.66 39.3125 33.32 39.3125 34 39.3125 C34.33 38.3225 34.66 37.3325 35 36.3125 C36.43301786 35.11276412 37.87046844 33.91768611 39.3359375 32.7578125 C41.05105548 31.26815604 42.39196177 29.70722081 43.8125 27.9375 C47.64106291 23.35329968 52.49630123 17.9427385 58.5625 16.8515625 C61 17.3125 61 17.3125 62.80859375 19.11328125 C63.34613281 19.94214844 63.88367188 20.77101563 64.4375 21.625 C65.03691406 22.5428125 65.63632813 23.460625 66.25390625 24.40625 C68.41006021 27.99501632 70.37105126 31.66490254 72.31640625 35.37109375 C74.93067776 39.9384869 78.03442971 44.12661354 81.14453125 48.3671875 C82.9323889 51.20517628 83.92628906 52.96715734 84 56.3125 C81.76378068 59.19582702 79.35528278 60.11413752 75.94921875 61.25 C74.44609131 61.75442627 74.44609131 61.75442627 72.91259766 62.26904297 C71.84831543 62.61338379 70.7840332 62.95772461 69.6875 63.3125 C68.06013916 63.84641357 68.06013916 63.84641357 66.39990234 64.39111328 C58.65527805 66.8871043 51.01685212 68.89462589 43 70.3125 C41.04095745 70.70480826 39.08255446 71.10033263 37.125 71.5 C35.75020359 71.77186489 34.37529053 72.04314586 33 72.3125 C36.25678224 74.95863557 39.5722888 77.45574652 43 79.875 C48.09370468 83.54495548 52.86731174 87.49562231 57.58398438 91.63110352 C60.25347035 93.94778849 62.72501997 95.93937584 66 97.3125 C66 97.9725 66 98.6325 66 99.3125 C66.721875 99.415625 67.44375 99.51875 68.1875 99.625 C71.42983916 100.41757179 73.45215002 101.12862858 76 103.3125 C76.84176008 107.60547638 76.2079459 110.40512022 74 114.0625 C73.02080741 115.49362764 72.01803368 116.90873653 71 118.3125 C70.02353516 119.68728516 70.02353516 119.68728516 69.02734375 121.08984375 C64.12738797 127.91314666 59.54806354 133.99219837 53 139.3125 C52.319375 140.09625 51.63875 140.88 50.9375 141.6875 C49 143.3125 49 143.3125 46.5625 143.4375 C39.10762684 140.16462886 36.60588563 131.41504737 33.6875 124.4375 C28.96325434 113.41025924 23.9048655 102.6696216 18.28125 92.07421875 C17 89.3125 17 89.3125 17 86.3125 C7.97053184 94.88656889 2.51123154 106.04930587 -3.125 117 C-10.00014427 130.32187027 -10.00014427 130.32187027 -12.875 135.1875 C-13.34679687 135.98929688 -13.81859375 136.79109375 -14.3046875 137.6171875 C-16.7621377 140.0746377 -18.56944525 140.23950947 -22 140.3125 C-24.53515625 139.23046875 -24.53515625 139.23046875 -27.0625 137.5 C-28.00222656 136.85933594 -28.94195312 136.21867188 -29.91015625 135.55859375 C-46.43719709 123.54462601 -46.43719709 123.54462601 -49 120.3125 C-49.1875 116.625 -49.1875 116.625 -49 113.3125 C-46.525 112.3225 -46.525 112.3225 -44 111.3125 C-44 110.6525 -44 109.9925 -44 109.3125 C-42.42578125 107.7265625 -42.42578125 107.7265625 -40.3125 105.9375 C-39.21421875 105.00357422 -39.21421875 105.00357422 -38.09375 104.05078125 C-35.75235233 102.10689699 -33.39518413 100.18980648 -31 98.3125 C-30.175 97.631875 -29.35 96.95125 -28.5 96.25 C-26.07536421 94.37090726 -23.63946997 92.8721868 -21 91.3125 C-17.97370808 89.35112591 -14.98523748 87.33567043 -12 85.3125 C-11.13246094 84.72855469 -10.26492187 84.14460938 -9.37109375 83.54296875 C-4.82273239 80.43164555 -0.71145974 77.39510572 3 73.3125 C2.24976563 73.14234375 1.49953125 72.9721875 0.7265625 72.796875 C-5.18606846 71.39690696 -10.76850001 69.77235209 -16.3671875 67.4140625 C-19.40711747 66.14216302 -22.48033037 64.97814652 -25.5625 63.8125 C-29.21422696 62.42560718 -32.7486044 60.97699396 -36.25 59.25 C-41.30294158 56.90331552 -46.71244256 55.88312254 -52.14941406 54.79467773 C-55.1134339 54.16917151 -57.54533307 53.64468882 -60.015625 51.83984375 C-61 50.3125 -61 50.3125 -60.875 47.9375 C-60 45.3125 -60 45.3125 -58.55859375 43.07421875 C-56.77777697 39.91873638 -56.03678626 37.01736363 -55.1875 33.5 C-53.52236502 27.33835266 -51.34150104 22.97237778 -47 18.3125 C-42.4934738 19.18441485 -40.32331916 21.21577079 -37 24.3125 C-37 24.9725 -37 25.6325 -37 26.3125 C-36.41677979 26.57675781 -35.83355957 26.84101562 -35.23266602 27.11328125 C-32.91257786 28.35945654 -31.22314956 29.73195916 -29.27734375 31.5 C-25.12456429 35.2135709 -20.86804322 38.77793802 -16.5625 42.3125 C-15.81822754 42.92480469 -15.07395508 43.53710938 -14.30712891 44.16796875 C-9.88132649 47.79919785 -5.41587578 51.36598113 -0.87109375 54.84765625 C2.17627144 57.23338057 5.08397069 59.76872975 8 62.3125 C7.33226922 58.2378247 6.06018519 54.69311988 4.5 50.875 C4.24299316 50.24174805 3.98598633 49.60849609 3.72119141 48.95605469 C2.81965644 46.7392343 1.910613 44.52560672 1 42.3125 C-0.14844214 39.52101998 -1.2967189 36.72947653 -2.44335938 33.93725586 C-3.21040055 32.07115878 -3.97979504 30.20602663 -4.75195312 28.34204102 C-13.56145016 6.95006297 -13.56145016 6.95006297 -12.25 3.125 C-9.5279874 -0.82191828 -4.34891254 0.05803709 0 0 Z " fill="#1D1D1D" transform="translate(98,33.6875)"/>
<path d="M0 0 C1.2375 -0.03996094 2.475 -0.07992187 3.75 -0.12109375 C7 0.4375 7 0.4375 8.87109375 2.58984375 C10.06402684 5.59900716 10.64933769 8.22847236 11.0625 11.4375 C11.2171875 12.5821875 11.371875 13.726875 11.53125 14.90625 C11.6859375 16.0715625 11.840625 17.236875 12 18.4375 C12.35088021 20.60470132 12.70498558 22.77138322 13.0625 24.9375 C13.92292422 30.44021304 14.37504598 35.90403419 14.65625 41.46484375 C15.02701926 44.67115516 15.97088315 47.38749642 17 50.4375 C17 51.7575 17 53.0775 17 54.4375 C18.32 54.4375 19.64 54.4375 21 54.4375 C21.3403125 53.3546875 21.3403125 53.3546875 21.6875 52.25 C23.68891434 47.96125499 26.53264077 45.27599099 30.625 42.9375 C33.45409637 41.15070229 34.3217382 39.28324828 36 36.4375 C38.1875 35.125 38.1875 35.125 40 34.4375 C40 38.4375 40 38.4375 38.49609375 40.11328125 C37.81675781 40.65339844 37.13742188 41.19351563 36.4375 41.75 C32.85523204 44.68962309 29.62664567 47.78604935 26.4453125 51.15234375 C25 52.4375 25 52.4375 23 52.4375 C22.67 53.7575 22.34 55.0775 22 56.4375 C20.02 56.4375 18.04 56.4375 16 56.4375 C16 57.0975 16 57.7575 16 58.4375 C15.34 58.4375 14.68 58.4375 14 58.4375 C13.67 61.0775 13.34 63.7175 13 66.4375 C11.68 66.1075 10.36 65.7775 9 65.4375 C9.99 65.4375 10.98 65.4375 12 65.4375 C11.59007813 64.38691406 11.18015625 63.33632812 10.7578125 62.25390625 C7.96790384 55.01531753 5.52486984 48.0618492 4 40.4375 C2.75185756 37.46465165 1.26239623 35.6878622 -1 33.4375 C-3.59864233 27.59055477 -4.94292315 21.64186643 -6.25390625 15.390625 C-6.91480064 12.77472887 -7.58493492 10.72296361 -9 8.4375 C-9.66 8.1075 -10.32 7.7775 -11 7.4375 C-10.6875 5.0625 -10.6875 5.0625 -10 2.4375 C-6.35535532 0.00773688 -4.34165569 0.07688349 0 0 Z " fill="#1F1F1F" transform="translate(98,34.5625)"/>
<path d="M0 0 C3.69346926 1.23115642 3.86090074 2.12880649 5.5625 5.5 C7.11619318 8.90258539 7.11619318 8.90258539 10 11 C10.73075648 13.3140622 11.40138258 15.64828869 12 18 C12.66 18 13.32 18 14 18 C14.17015625 18.7734375 14.3403125 19.546875 14.515625 20.34375 C15.82804615 25.98436856 17.20901906 31.11016675 20.03515625 36.18359375 C21.21042021 38.39613522 22.09584956 40.66398486 23 43 C23.66577785 44.68785087 24.33244232 46.37535228 25 48.0625 C25.495 49.31740234 25.495 49.31740234 26 50.59765625 C26.91192449 52.78841236 27.91010437 54.89319283 29 57 C23.44088959 52.48259677 21.38500376 46.68703897 18.6875 40.1875 C17.72578369 37.93355884 16.76093302 35.68095252 15.79296875 33.4296875 C15.32165527 32.33237305 14.8503418 31.23505859 14.36474609 30.10449219 C11.01776731 22.49086388 7.17912326 15.10566633 3.28125 7.76171875 C2 5 2 5 2 2 C-1.90950137 5.65393326 -4.79707252 9.40794029 -7.625 13.9375 C-8.0065625 14.53240234 -8.388125 15.12730469 -8.78125 15.74023438 C-11.0952855 19.39082487 -13.12897931 23.09707468 -15 27 C-15.68707555 24.50935112 -16 22.62113708 -16 20 C-16.66 20.66 -17.32 21.32 -18 22 C-18.99 22 -19.98 22 -21 22 C-21 20.35 -21 18.7 -21 17 C-20.34 17 -19.68 17 -19 17 C-18.67 15.68 -18.34 14.36 -18 13 C-17.34 13 -16.68 13 -16 13 C-15.814375 11.8553125 -15.814375 11.8553125 -15.625 10.6875 C-15 8 -15 8 -13 5 C-10.375 4.3125 -10.375 4.3125 -8 4 C-7.67 4.66 -7.34 5.32 -7 6 C-6.67 5.34 -6.34 4.68 -6 4 C-5.01 4 -4.02 4 -3 4 C-3 3.34 -3 2.68 -3 2 C-2.01 1.34 -1.02 0.68 0 0 Z " fill="#6A6A6A" transform="translate(113,118)"/>
<path d="M0 0 C3.78125 0.7421875 3.78125 0.7421875 5.75 3.0625 C6.1625 3.701875 6.575 4.34125 7 5 C4.61435923 4.42415568 2.33317216 3.77772405 0 3 C-0.33 4.65 -0.66 6.3 -1 8 C-1.66 8 -2.32 8 -3 8 C-3.33 11.96 -3.66 15.92 -4 20 C-3.01 20 -2.02 20 -1 20 C-1 21.32 -1 22.64 -1 24 C-3.31 24 -5.62 24 -8 24 C-8.33 26.97 -8.66 29.94 -9 33 C-7.02 33 -5.04 33 -3 33 C-3 33.66 -3 34.32 -3 35 C-1.783125 35.04125 -0.56625 35.0825 0.6875 35.125 C8.06003171 35.92203045 17.0772323 39.25103352 22 45 C18.13658704 44.01359669 14.69822611 42.89419967 11.125 41.125 C5.92098541 38.69465291 0.45616321 37.60373264 -5.14794922 36.48291016 C-8.11228026 35.85675646 -10.54494114 35.33247517 -13.015625 33.52734375 C-14 32 -14 32 -13.875 29.625 C-13 27 -13 27 -11.55859375 24.76171875 C-9.77777697 21.60623638 -9.03678626 18.70486363 -8.1875 15.1875 C-6.52236502 9.02585266 -4.34150104 4.65987778 0 0 Z " fill="#383838" transform="translate(51,52)"/>
<path d="M0 0 C1.08667969 -0.04350586 1.08667969 -0.04350586 2.1953125 -0.08789062 C7.49218871 -0.15141405 7.49218871 -0.15141405 9.98828125 2.12890625 C11.3007816 4.96167727 11.21022516 7.22919769 11 10.3125 C9 6.3125 9 6.3125 7 2.3125 C4.72942623 2.25851013 2.45848712 2.21971258 0.1875 2.1875 C-1.07707031 2.16429687 -2.34164062 2.14109375 -3.64453125 2.1171875 C-7.1338024 2.03668082 -7.1338024 2.03668082 -10 4.3125 C-10.72382467 6.37175139 -10.72382467 6.37175139 -11 8.3125 C-10.01 8.6425 -9.02 8.9725 -8 9.3125 C-6.90234375 11.5703125 -6.90234375 11.5703125 -5.9375 14.4375 C-5.59847656 15.4378125 -5.25945312 16.438125 -4.91015625 17.46875 C-3.61398624 21.51858591 -2.34241293 25.52141696 -1.54296875 29.703125 C-1.38441406 30.52296875 -1.22585937 31.3428125 -1.0625 32.1875 C-0.92972656 32.94804688 -0.79695313 33.70859375 -0.66015625 34.4921875 C-0.44230469 35.09289062 -0.22445312 35.69359375 0 36.3125 C0.99 36.6425 1.98 36.9725 3 37.3125 C5.55951157 43.09922182 7.22879933 49.20425678 9.03515625 55.26171875 C9.94320248 58.2853975 9.94320248 58.2853975 11.12109375 61.01953125 C12 63.3125 12 63.3125 12 66.3125 C7.12134885 65.8943299 5.28667379 63.77215662 2 60.3125 C1.01 59.9825 0.02 59.6525 -1 59.3125 C-0.67 57.9925 -0.34 56.6725 0 55.3125 C2.64 57.6225 5.28 59.9325 8 62.3125 C7.15576074 58.09130368 6.11216515 54.82032639 4.5 50.875 C4.24299316 50.24174805 3.98598633 49.60849609 3.72119141 48.95605469 C2.81965644 46.7392343 1.910613 44.52560672 1 42.3125 C-0.14844214 39.52101998 -1.2967189 36.72947653 -2.44335938 33.93725586 C-3.21040055 32.07115878 -3.97979504 30.20602663 -4.75195312 28.34204102 C-13.56145016 6.95006297 -13.56145016 6.95006297 -12.25 3.125 C-9.5279874 -0.82191828 -4.34891254 0.05803709 0 0 Z " fill="#949494" transform="translate(98,33.6875)"/>
<path d="M0 0 C5.85524449 -0.22961743 9.47244323 0.44458045 14.4375 3.5 C19.74394908 6.60621409 24.98883734 7.37815559 31 8 C30.4409112 11.24271506 29.5867822 12.93057424 27 15 C26.34 15 25.68 15 25 15 C25 15.66 25 16.32 25 17 C22.8299737 18.59226248 20.55367772 19.95731902 18.26171875 21.3671875 C15.91863146 22.88448003 15.91863146 22.88448003 14.42578125 25.12890625 C12.24997173 27.98428367 9.38174166 28.09417634 6 29 C4.35405861 30.39588754 4.35405861 30.39588754 3 32 C0.5 33.5 0.5 33.5 -2 35 C-7.17428905 38.52649315 -11.09881151 42.12351439 -15 47 C-18.4 50 -18.4 50 -22 50 C-22.33 51.98 -22.66 53.96 -23 56 C-22.01 56 -21.02 56 -20 56 C-19.34 57.65 -18.68 59.3 -18 61 C-22.17391304 59.60869565 -22.17391304 59.60869565 -24 57 C-24.1875 53.3125 -24.1875 53.3125 -24 50 C-22.35 49.34 -20.7 48.68 -19 48 C-19 47.34 -19 46.68 -19 46 C-17.42578125 44.4140625 -17.42578125 44.4140625 -15.3125 42.625 C-14.5803125 42.00238281 -13.848125 41.37976563 -13.09375 40.73828125 C-10.75235233 38.79439699 -8.39518413 36.87730648 -6 35 C-5.175 34.319375 -4.35 33.63875 -3.5 32.9375 C-1.07536421 31.05840726 1.36053003 29.5596868 4 28 C7.02629192 26.03862591 10.01476252 24.02317043 13 22 C14.30130859 21.12408203 14.30130859 21.12408203 15.62890625 20.23046875 C20.17726761 17.11914555 24.28854026 14.08260572 28 10 C27.24976563 9.82984375 26.49953125 9.6596875 25.7265625 9.484375 C19.65636467 8.04709894 13.95214841 6.33812215 8.203125 3.91796875 C5.51389671 2.79745696 2.77718466 1.87700568 0 1 C0 0.67 0 0.34 0 0 Z " fill="#909090" transform="translate(73,97)"/>
<path d="M0 0 C0.33 0 0.66 0 1 0 C1.69536331 3.85917058 2.38906662 7.71863566 3.08129883 11.57836914 C3.43159612 13.52961392 3.78316996 15.48062938 4.13476562 17.43164062 C4.46831055 19.29272461 4.46831055 19.29272461 4.80859375 21.19140625 C5.01282959 22.32779541 5.21706543 23.46418457 5.42749023 24.63500977 C6.48738736 30.86467375 7.11056582 36.69774822 7 43 C7.721875 42.278125 8.44375 41.55625 9.1875 40.8125 C10.115625 39.884375 11.04375 38.95625 12 38 C12.886875 37.071875 13.77375 36.14375 14.6875 35.1875 C17 33 17 33 19 33 C19.66 31.68 20.32 30.36 21 29 C21.66 29 22.32 29 23 29 C23.33 28.01 23.66 27.02 24 26 C25.62890625 24.61328125 25.62890625 24.61328125 27.5625 23.3125 C28.52349609 22.65701172 28.52349609 22.65701172 29.50390625 21.98828125 C29.99761719 21.66214844 30.49132812 21.33601563 31 21 C29.96905133 23.57737166 29.4891374 24.76284247 26.9375 26 C26.298125 26.33 25.65875 26.66 25 27 C24.64587656 28.32796291 24.31478446 29.66216607 24 31 C22.01223595 33.34272192 20.27204023 34.8535168 17.5625 36.3125 C14.51765666 38.31764073 13.15797186 40.4833896 11.30859375 43.57421875 C10.87675781 44.04472656 10.44492188 44.51523438 10 45 C8.68 45 7.36 45 6 45 C3.64122665 38.42807173 2.6434514 32.33026542 2.25 25.37109375 C1.99606975 21.94700303 1.50627515 18.63500209 0.9375 15.25 C0.08823133 10.07260654 -0.17759965 5.23918981 0 0 Z " fill="#848484" transform="translate(109,44)"/>
<path d="M0 0 C2.80321576 1.40160788 3.27781203 3.21924565 4.6875 6 C7.23300495 10.85158121 10.12870419 14.854986 13.77734375 18.9296875 C15 21 15 21 14.81640625 23.6328125 C14 26 14 26 12 28 C8.20058498 29.55979801 4.27426604 30.77578824 0.375 32.0625 C-0.69363281 32.42666016 -1.76226562 32.79082031 -2.86328125 33.16601562 C-8.61136005 35.07850679 -13.95550048 36.52434326 -20 37 C-18.40647628 34.37942112 -17.57410862 33.17158335 -14.58203125 32.27734375 C-13.66808594 32.16519531 -12.75414062 32.05304688 -11.8125 31.9375 C-3.81638981 30.88289599 -3.81638981 30.88289599 3 27 C5.65463121 26.54540142 8.32189138 26.29756762 11 26 C11.66 24.35 12.32 22.7 13 21 C11.35 20.34 9.7 19.68 8 19 C7.34 20.32 6.68 21.64 6 23 C5.67 23 5.34 23 5 23 C5.03480469 22.39671875 5.06960937 21.7934375 5.10546875 21.171875 C5.13253906 20.37265625 5.15960938 19.5734375 5.1875 18.75 C5.22230469 17.96109375 5.25710937 17.1721875 5.29296875 16.359375 C4.93134117 13.44706752 3.7692296 12.29999848 2 10 C1.26953125 7.421875 1.26953125 7.421875 0.8125 4.75 C0.65394531 3.85796875 0.49539062 2.9659375 0.33203125 2.046875 C0.22246094 1.37140625 0.11289063 0.6959375 0 0 Z " fill="#868686" transform="translate(167,65)"/>
<path d="M0 0 C3.69346926 1.23115642 3.86090074 2.12880649 5.5625 5.5 C7.11619318 8.90258539 7.11619318 8.90258539 10 11 C10.73075648 13.3140622 11.40138258 15.64828869 12 18 C12.66 18 13.32 18 14 18 C14.17015625 18.7734375 14.3403125 19.546875 14.515625 20.34375 C15.82804615 25.98436856 17.20901906 31.11016675 20.03515625 36.18359375 C21.21042021 38.39613522 22.09584956 40.66398486 23 43 C23.66577785 44.68785087 24.33244232 46.37535228 25 48.0625 C25.33 48.89910156 25.66 49.73570312 26 50.59765625 C26.91192449 52.78841236 27.91010437 54.89319283 29 57 C23.44088959 52.48259677 21.38500376 46.68703897 18.6875 40.1875 C17.72578369 37.93355884 16.76093302 35.68095252 15.79296875 33.4296875 C15.32165527 32.33237305 14.8503418 31.23505859 14.36474609 30.10449219 C11.01776731 22.49086388 7.17912326 15.10566633 3.28125 7.76171875 C2 5 2 5 2 2 C-0.97 4.475 -0.97 4.475 -4 7 C-3.6875 4.625 -3.6875 4.625 -3 2 C-2.01 1.34 -1.02 0.68 0 0 Z " fill="#777777" transform="translate(113,118)"/>
<path d="M0 0 C1.66666667 1 3.33333333 2 5 3 C5.928125 3.515625 6.85625 4.03125 7.8125 4.5625 C8.534375 5.036875 9.25625 5.51125 10 6 C10 6.66 10 7.32 10 8 C10.721875 8.103125 11.44375 8.20625 12.1875 8.3125 C15.42983916 9.10507179 17.45215002 9.81612858 20 12 C20.84176008 16.29297638 20.2079459 19.09262022 18 22.75 C17.02080741 24.18112764 16.01803368 25.59623653 15 27 C14.02353516 28.37478516 14.02353516 28.37478516 13.02734375 29.77734375 C11.04402465 32.53916194 9.04335013 35.2823037 7 38 C6.30003906 38.93457031 5.60007813 39.86914062 4.87890625 40.83203125 C3.94884766 41.90517578 3.94884766 41.90517578 3 43 C2.34 43 1.68 43 1 43 C1.33 41.68 1.66 40.36 2 39 C2.66 39 3.32 39 4 39 C4.061875 38.4225 4.12375 37.845 4.1875 37.25 C5 35 5 35 7.1875 33.375 C12.0883722 29.23648569 15.95597344 23.32131489 16.875 16.875 C16.91625 15.92625 16.9575 14.9775 17 14 C16.2575 13.731875 15.515 13.46375 14.75 13.1875 C12.10938051 12.04723249 10.14447156 10.90619694 8 9 C8 8.34 8 7.68 8 7 C7.4225 6.731875 6.845 6.46375 6.25 6.1875 C3.94449957 4.97070811 1.97943808 3.69666121 0 2 C0 1.34 0 0.68 0 0 Z " fill="#868686" transform="translate(154,125)"/>
<path d="M0 0 C1.65 0.33 3.3 0.66 5 1 C5 1.66 5 2.32 5 3 C5.99 3.33 6.98 3.66 8 4 C8 5.32 8 6.64 8 8 C7.34 8.66 6.68 9.32 6 10 C8.03802135 14.06024321 8.03802135 14.06024321 12 16 C12 16.66 12 17.32 12 18 C7.98981897 16.61047587 5.09967277 14.73301706 1.8125 12.0625 C0.95269531 11.37285156 0.09289063 10.68320313 -0.79296875 9.97265625 C-3 8 -3 8 -5 5 C-5 4.01 -5 3.02 -5 2 C-4.34 2 -3.68 2 -3 2 C-3 2.66 -3 3.32 -3 4 C-2.34 4 -1.68 4 -1 4 C-0.67 2.68 -0.34 1.36 0 0 Z " fill="#363636" transform="translate(58,151)"/>
<path d="M0 0 C0 0.33 0 0.66 0 1 C-7.92 2.485 -7.92 2.485 -16 4 C-12.57696078 6.73843138 -9.18458993 9.33534987 -5.625 11.875 C-1.21576026 15.06110829 2.93554336 18.38714965 7 22 C3.25185121 22 2.4464672 20.63328822 -0.23828125 18.24609375 C-3.25196988 16.11446033 -6.40712679 15.68140699 -10 15 C-10 14.01 -10 13.02 -10 12 C-12.33214148 10.79371992 -14.49642139 9.8345262 -17 9 C-17 8.34 -17 7.68 -17 7 C-18.32 6.67 -19.64 6.34 -21 6 C-20.67 4.68 -20.34 3.36 -20 2 C-13.25846717 0.74158054 -6.86515862 -0.26404456 0 0 Z " fill="#7B7B7B" transform="translate(147,102)"/>
<path d="M0 0 C0.99 0.33 1.98 0.66 3 1 C3 1.66 3 2.32 3 3 C3.58338135 3.26441895 4.1667627 3.52883789 4.76782227 3.80126953 C7.08482182 5.04555126 8.77157921 6.41427936 10.71484375 8.1796875 C14.91387976 11.93441709 19.21460889 15.5443838 23.5625 19.125 C24.27857422 19.71925781 24.99464844 20.31351563 25.73242188 20.92578125 C30.03783469 24.47510246 34.4209994 27.8109457 39 31 C38.01 31.495 38.01 31.495 37 32 C29.15014897 26.2050838 21.49656795 20.24883066 14 14 C12.81917495 13.03104946 11.63817749 12.06230899 10.45703125 11.09375 C9.26260492 10.10466871 8.06858807 9.1150927 6.875 8.125 C6.30595947 7.6604541 5.73691895 7.1959082 5.15063477 6.71728516 C2.51950753 4.51723292 1.10646262 3.31938785 0 0 Z " fill="#A6A6A6" transform="translate(58,57)"/>
<path d="M0 0 C0.99 0.33 1.98 0.66 3 1 C-0.55774819 4.06131821 -3.96411584 6.597688 -8 9 C-13.17447899 12.52709384 -17.09860364 16.12325455 -21 21 C-24.4 24 -24.4 24 -28 24 C-28.33 25.98 -28.66 27.96 -29 30 C-28.01 30 -27.02 30 -26 30 C-25.34 31.65 -24.68 33.3 -24 35 C-28.17391304 33.60869565 -28.17391304 33.60869565 -30 31 C-30.1875 27.3125 -30.1875 27.3125 -30 24 C-28.35 23.34 -26.7 22.68 -25 22 C-25 21.34 -25 20.68 -25 20 C-23.42578125 18.4140625 -23.42578125 18.4140625 -21.3125 16.625 C-20.5803125 16.00238281 -19.848125 15.37976563 -19.09375 14.73828125 C-16.75235233 12.79439699 -14.39518413 10.87730648 -12 9 C-10.7625 7.9790625 -10.7625 7.9790625 -9.5 6.9375 C-7.09061395 5.07022581 -4.61621138 3.55558514 -2 2 C-1.34 1.34 -0.68 0.68 0 0 Z " fill="#ADADAD" transform="translate(79,123)"/>
<path d="M0 0 C0.66 0.66 1.32 1.32 2 2 C2.33 1.34 2.66 0.68 3 0 C3.66 0 4.32 0 5 0 C5.69430333 4.58240198 4.01438722 6.95488235 1.484375 10.546875 C-0.31140298 12.30484713 -1.5231819 12.70278183 -4 13 C-4.66 12.67 -5.32 12.34 -6 12 C-6 11.01 -6 10.02 -6 9 C-5.34 9 -4.68 9 -4 9 C-3.690625 8.195625 -3.38125 7.39125 -3.0625 6.5625 C-2 4 -2 4 -1 3 C-1.99 2.34 -2.98 1.68 -4 1 C-2.125 0.375 -2.125 0.375 0 0 Z " fill="#303030" transform="translate(104,122)"/>
<path d="M0 0 C0.33 0.66 0.66 1.32 1 2 C0.16723633 3.96777344 0.16723633 3.96777344 -1.16796875 6.359375 C-1.89016602 7.66261719 -1.89016602 7.66261719 -2.62695312 8.9921875 C-3.14193359 9.90226563 -3.65691406 10.81234375 -4.1875 11.75 C-4.9309668 13.09191406 -4.9309668 13.09191406 -5.68945312 14.4609375 C-13.06707361 27.67633166 -13.06707361 27.67633166 -17.0625 29.0625 C-20 29 -20 29 -21.875 27.5625 C-22.431875 26.7890625 -22.431875 26.7890625 -23 26 C-20.69 26 -18.38 26 -16 26 C-15.608125 24.948125 -15.21625 23.89625 -14.8125 22.8125 C-13.22719199 19.05305528 -10.88022153 16.88022153 -8 14 C-7.27648573 12.01985568 -6.59734611 10.02178685 -6 8 C-5.34 7.67 -4.68 7.34 -4 7 C-2.88365848 5.34948712 -2.88365848 5.34948712 -1.875 3.4375 C-1.25625 2.303125 -0.6375 1.16875 0 0 Z " fill="#9B9B9B" transform="translate(96,145)"/>
<path d="M0 0 C2.8599648 1.4299824 3.41988975 3.43025267 4.875 6.25 C6.57423173 9.47728779 8.09960133 12.12003237 10.4375 14.9375 C12 17 12 17 11.75 19.3125 C11.37875 20.1478125 11.37875 20.1478125 11 21 C10.01 20.34 9.02 19.68 8 19 C7.34 20.32 6.68 21.64 6 23 C5.67 23 5.34 23 5 23 C5.03480469 22.39671875 5.06960937 21.7934375 5.10546875 21.171875 C5.14607422 19.97304687 5.14607422 19.97304687 5.1875 18.75 C5.23970703 17.56664062 5.23970703 17.56664062 5.29296875 16.359375 C4.93134117 13.44706752 3.7692296 12.29999848 2 10 C1.26953125 7.421875 1.26953125 7.421875 0.8125 4.75 C0.65394531 3.85796875 0.49539062 2.9659375 0.33203125 2.046875 C0.22246094 1.37140625 0.11289063 0.6959375 0 0 Z " fill="#707070" transform="translate(167,65)"/>
<path d="M0 0 C0.33 1.32 0.66 2.64 1 4 C0.50371094 4.42410156 0.00742188 4.84820312 -0.50390625 5.28515625 C-4.7229299 8.9277668 -8.72536941 12.66289088 -12.5546875 16.71484375 C-14 18 -14 18 -16 18 C-16.33 19.32 -16.66 20.64 -17 22 C-18.65 22 -20.3 22 -22 22 C-22 21.34 -22 20.68 -22 20 C-20.68 20 -19.36 20 -18 20 C-17.773125 19.278125 -17.54625 18.55625 -17.3125 17.8125 C-15.31108566 13.52375499 -12.46735923 10.83849099 -8.375 8.5 C-5.54452324 6.71233047 -4.62493902 4.88057372 -3 2 C-2.01 1.34 -1.02 0.68 0 0 Z " fill="#393939" transform="translate(137,69)"/>
<path d="M0 0 C3.78125 0.7421875 3.78125 0.7421875 5.75 3.0625 C6.1625 3.701875 6.575 4.34125 7 5 C4.61435923 4.42415568 2.33317216 3.77772405 0 3 C-0.33 4.65 -0.66 6.3 -1 8 C-2.32 8.33 -3.64 8.66 -5 9 C-4.9175 9.99 -4.835 10.98 -4.75 12 C-4.71209308 16.63412067 -6.71714715 20.07634666 -9 24 C-10.92865918 20.14268163 -8.48118394 15.52398522 -7.32421875 11.578125 C-5.6260504 6.98956391 -3.3165728 3.55978813 0 0 Z " fill="#969696" transform="translate(51,52)"/>
<path d="M0 0 C3.36436484 0.85088761 4.22509545 2.47690913 6.09765625 5.34375 C6.690625 6.22546875 7.28359375 7.1071875 7.89453125 8.015625 C9.17408762 10.28580566 9.89603834 12.05042807 10.34765625 14.59375 C9.68765625 14.26375 9.02765625 13.93375 8.34765625 13.59375 C8.34765625 12.93375 8.34765625 12.27375 8.34765625 11.59375 C7.35765625 11.26375 6.36765625 10.93375 5.34765625 10.59375 C3.75800054 8.37673853 2.62438139 6.01512527 1.34765625 3.59375 C-3.08615557 4.11023346 -5.39843076 5.6741569 -8.77734375 8.53125 C-11.36425943 10.69749702 -13.84191676 12.72013201 -16.65234375 14.59375 C-15.08763 10.48517646 -12.13031578 8.08116808 -8.83984375 5.34375 C-8.05770508 4.65539063 -8.05770508 4.65539063 -7.25976562 3.953125 C-4.90239396 1.97540495 -3.02157626 0.67640588 0 0 Z " fill="#B0B0B0" transform="translate(156.65234375,50.40625)"/>
<path d="M0 0 C27.99582247 5.02564923 27.99582247 5.02564923 35 13 C31.13658704 12.01359669 27.69822611 10.89419967 24.125 9.125 C18.89807091 6.67970622 13.39677977 5.59698895 7.76416016 4.48291016 C2.20999754 3.31499631 2.20999754 3.31499631 0 0 Z " fill="#A8A8A8" transform="translate(38,84)"/>
<path d="M0 0 C0 3 0 3 -1.375 4.6875 C-3 6 -3 6 -5 6 C-5.0825 6.5775 -5.165 7.155 -5.25 7.75 C-6.51092783 11.53278349 -9.0300809 13.45286615 -12.4375 15.375 C-15.75001279 17.47561787 -17.59706294 19.91050949 -20 23 C-20.99 22.67 -21.98 22.34 -23 22 C-21.33333333 20.33333333 -19.66666667 18.66666667 -18 17 C-17.113125 16.071875 -16.22625 15.14375 -15.3125 14.1875 C-13 12 -13 12 -11 12 C-10.34 10.68 -9.68 9.36 -9 8 C-8.34 8 -7.68 8 -7 8 C-6.67 7.01 -6.34 6.02 -6 5 C-4.12382302 3.15500602 -2.07262391 1.6316401 0 0 Z " fill="#9D9D9D" transform="translate(139,65)"/>
<path d="M0 0 C0.66 0 1.32 0 2 0 C2.79311367 1.72850345 3.5844259 3.45783354 4.375 5.1875 C4.81585938 6.15042969 5.25671875 7.11335937 5.7109375 8.10546875 C6.87386024 10.71675889 7.95755931 13.33880994 9 16 C9.66577785 17.68785087 10.33244232 19.37535228 11 21.0625 C11.33 21.89910156 11.66 22.73570312 12 23.59765625 C12.91192449 25.78841236 13.91010437 27.89319283 15 30 C9.48845383 25.50138664 7.37391467 19.77183483 4.6875 13.3125 C4.23310547 12.25482422 3.77871094 11.19714844 3.31054688 10.10742188 C0 2.31643562 0 2.31643562 0 0 Z " fill="#A0A0A0" transform="translate(127,145)"/>
<path d="M0 0 C1.32 0 2.64 0 4 0 C4 0.66 4 1.32 4 2 C4.66 2 5.32 2 6 2 C7.35439668 4.70879335 7.06501451 7.00933268 7 10 C5.35 10 3.7 10 2 10 C-0.09350689 6.5980513 -0.17942163 3.94727588 0 0 Z " fill="#494949" transform="translate(142,151)"/>
<path d="M0 0 C0.66 0 1.32 0 2 0 C0.50977142 4.50436323 -2.01508226 7.89788093 -4.9375 11.5625 C-5.82173427 12.68870813 -6.70585168 13.81500801 -7.58984375 14.94140625 C-8.78287109 16.45541016 -8.78287109 16.45541016 -10 18 C-10.83724609 19.18916016 -10.83724609 19.18916016 -11.69140625 20.40234375 C-12.12324219 20.92957031 -12.55507812 21.45679688 -13 22 C-13.66 22 -14.32 22 -15 22 C-14.67 20.68 -14.34 19.36 -14 18 C-13.34 18 -12.68 18 -12 18 C-11.9071875 17.13375 -11.9071875 17.13375 -11.8125 16.25 C-11 14 -11 14 -8.8125 12.375 C-5.28296311 9.39450218 -3.53337677 6.06621828 -1.33203125 2.046875 C-0.67267578 1.03367188 -0.67267578 1.03367188 0 0 Z " fill="#ADADAD" transform="translate(170,146)"/>
<path d="M0 0 C1.98 0.99 3.96 1.98 6 3 C5.125 7.875 5.125 7.875 4 9 C2.00041636 9.04080783 -0.00045254 9.04254356 -2 9 C-1.34 6.03 -0.68 3.06 0 0 Z " fill="#282828" transform="translate(174,83)"/>
<path d="M0 0 C0.33 0.99 0.66 1.98 1 3 C-0.57510125 4.48792961 -2.16040864 5.9650606 -3.75 7.4375 C-5.07257813 8.67306641 -5.07257813 8.67306641 -6.421875 9.93359375 C-8.78875032 11.83068018 -10.0509191 12.62102932 -13 13 C-11.50536684 9.3852622 -9.4391696 7.35564512 -6.5 4.8125 C-5.7059375 4.11769531 -4.911875 3.42289063 -4.09375 2.70703125 C-2 1 -2 1 0 0 Z " fill="#525252" transform="translate(153,54)"/>
<path d="M0 0 C0.09978121 3.49234244 -0.22157062 6.59437148 -1 10 C0.98 10 2.96 10 5 10 C5 10.33 5 10.66 5 11 C-2.42857143 11.28571429 -2.42857143 11.28571429 -6 9 C-5.63668534 5.73016809 -4.2451062 0 0 0 Z " fill="#616161" transform="translate(43,75)"/>
<path d="M0 0 C3.62076461 1.20692154 4.37428173 2.74104228 6.1484375 6.01171875 C7.43288086 9.01071723 7.73533008 11.75779342 8 15 C4.84297684 11.09130466 2 7.1385061 2 2 C-0.97 4.475 -0.97 4.475 -4 7 C-3.6875 4.625 -3.6875 4.625 -3 2 C-2.01 1.34 -1.02 0.68 0 0 Z " fill="#909090" transform="translate(113,118)"/>
<path d="M0 0 C-0.61488281 0.38671875 -1.22976562 0.7734375 -1.86328125 1.171875 C-2.67152344 1.69265625 -3.47976562 2.2134375 -4.3125 2.75 C-5.11300781 3.26046875 -5.91351563 3.7709375 -6.73828125 4.296875 C-9.08741209 5.88315132 -9.08741209 5.88315132 -10.54296875 8.203125 C-11.02378906 8.79609375 -11.50460938 9.3890625 -12 10 C-13.32 10 -14.64 10 -16 10 C-14.49322669 5.97896591 -12.13434234 4.4406542 -8.5625 2.1875 C-7.11037109 1.24970703 -7.11037109 1.24970703 -5.62890625 0.29296875 C-3 -1 -3 -1 0 0 Z " fill="#838383" transform="translate(98,114)"/>
<path d="M0 0 C1.26328125 0.02707031 2.5265625 0.05414063 3.828125 0.08203125 C4.79234375 0.11683594 5.7565625 0.15164062 6.75 0.1875 C6.75 0.5175 6.75 0.8475 6.75 1.1875 C5.75419922 1.27837891 5.75419922 1.27837891 4.73828125 1.37109375 C2.07319899 1.62398477 -0.58821532 1.9021632 -3.25 2.1875 C-4.24 2.290625 -5.23 2.39375 -6.25 2.5 C-8.44608357 3.02258203 -8.44608357 3.02258203 -9.5625 5.25 C-9.789375 5.889375 -10.01625 6.52875 -10.25 7.1875 C-10.58 5.8675 -10.91 4.5475 -11.25 3.1875 C-7.67487951 -0.25219926 -4.83224625 -0.13422906 0 0 Z " fill="#515151" transform="translate(98.25,34.8125)"/>
<path d="M0 0 C2.125 0.375 2.125 0.375 4 1 C2.7260411 3.03833424 1.38938077 5.03852126 0 7 C-0.66 7 -1.32 7 -2 7 C-2.33 7.99 -2.66 8.98 -3 10 C-3 9.34 -3 8.68 -3 8 C-3.66 7.67 -4.32 7.34 -5 7 C-4.34 7 -3.68 7 -3 7 C-2.87625 6.21625 -2.7525 5.4325 -2.625 4.625 C-2 2 -2 2 0 0 Z " fill="#595959" transform="translate(100,124)"/>
<path d="M0 0 C-1.75 4.875 -1.75 4.875 -4 6 C-4.33 6.99 -4.66 7.98 -5 9 C-5.99 9 -6.98 9 -8 9 C-7.8125 6.1875 -7.8125 6.1875 -7 3 C-4.59196729 1.14766715 -3.07258075 0 0 0 Z " fill="#3C3C3C" transform="translate(58,144)"/>
<path d="M0 0 C1.32 0 2.64 0 4 0 C4 0.99 4 1.98 4 3 C4.99 3 5.98 3 7 3 C7 3.66 7 4.32 7 5 C7.5775 5.28875 8.155 5.5775 8.75 5.875 C10.83333333 6.91666667 12.91666667 7.95833333 15 9 C15 9.66 15 10.32 15 11 C10.92584833 9.59790456 8.01720177 7.65552322 4.6875 4.9375 C3.80449219 4.22464844 2.92148437 3.51179687 2.01171875 2.77734375 C1.34785156 2.19082031 0.68398438 1.60429687 0 1 C0 0.67 0 0.34 0 0 Z " fill="#969696" transform="translate(55,158)"/>
<path d="M0 0 C0.33 0 0.66 0 1 0 C1 1.65 1 3.3 1 5 C2.98 4.01 4.96 3.02 7 2 C6.4140625 8.15234375 6.4140625 8.15234375 6 10 C5.01 10.495 5.01 10.495 4 11 C4 9.68 4 8.36 4 7 C2.68 6.67 1.36 6.34 0 6 C0 4.02 0 2.04 0 0 Z " fill="#323232" transform="translate(91,135)"/>
<path d="M0 0 C0.99 0 1.98 0 3 0 C3.99 2.64 4.98 5.28 6 8 C5.01 8 4.02 8 3 8 C2.67 8.99 2.34 9.98 2 11 C1.34 7.37 0.68 3.74 0 0 Z " fill="#2E2E2E" transform="translate(139,143)"/>
<path d="M0 0 C2.4375 0.375 2.4375 0.375 5 1 C5.33 1.66 5.66 2.32 6 3 C8.52733235 3.65555119 8.52733235 3.65555119 11 4 C11 4.66 11 5.32 11 6 C11.99 6.33 12.98 6.66 14 7 C11.03 6.67 8.06 6.34 5 6 C4.67 4.68 4.34 3.36 4 2 C2.68 1.67 1.36 1.34 0 1 C0 0.67 0 0.34 0 0 Z " fill="#555555" transform="translate(66,165)"/>
<path d="M0 0 C0.99 0.33 1.98 0.66 3 1 C3 2.32 3 3.64 3 5 C2.34 5.66 1.68 6.32 1 7 C1 7.66 1 8.32 1 9 C0.34 9 -0.32 9 -1 9 C-1 8.34 -1 7.68 -1 7 C-1.99 7 -2.98 7 -4 7 C-3.67 5.68 -3.34 4.36 -3 3 C-1.35 3.33 0.3 3.66 2 4 C1.34 2.68 0.68 1.36 0 0 Z " fill="#343434" transform="translate(63,154)"/>
<path d="M0 0 C1.59705433 3.19410866 0.72272459 5.55315966 0 9 C-1.18272104 11.75487463 -2.53878302 14.38340214 -4 17 C-5.56355918 13.87288164 -4.08381502 11.12190882 -3.125 7.9375 C-2.93808594 7.28716797 -2.75117187 6.63683594 -2.55859375 5.96679688 C-1.14311027 1.14311027 -1.14311027 1.14311027 0 0 Z " fill="#AAAAAA" transform="translate(46,59)"/>
<path d="M0 0 C1.32 0 2.64 0 4 0 C4.66 1.98 5.32 3.96 6 6 C4.35 5.67 2.7 5.34 1 5 C0.67 3.35 0.34 1.7 0 0 Z " fill="#595959" transform="translate(59,152)"/>
<path d="M0 0 C2.57471193 1.28735597 2.70416657 2.28489811 3.6875 4.9375 C3.95949219 5.64777344 4.23148437 6.35804687 4.51171875 7.08984375 C5 9 5 9 4 11 C2.29159719 9.36587557 1.06546953 8.13093906 0 6 C-0.039992 4.00039988 -0.04346799 1.99952758 0 0 Z " fill="#626262" transform="translate(99,70)"/>
<path d="M0 0 C0.8125 1.625 0.8125 1.625 1 4 C-1.3125 7.25 -1.3125 7.25 -4 10 C-4.66 10 -5.32 10 -6 10 C-5.67 8.68 -5.34 7.36 -5 6 C-4.34 6 -3.68 6 -3 6 C-2.87625 5.38125 -2.7525 4.7625 -2.625 4.125 C-2 2 -2 2 0 0 Z " fill="#818181" transform="translate(161,158)"/>
<path d="M0 0 C2.31 0.33 4.62 0.66 7 1 C7 1.99 7 2.98 7 4 C3.66666667 4 0.33333333 4 -3 4 C-2.01 2.68 -1.02 1.36 0 0 Z " fill="#484848" transform="translate(104,106)"/>
<path d="M0 0 C2.31 0 4.62 0 7 0 C6.65120368 3.25543229 5.97866739 4.01873107 3.4375 6.25 C2.633125 6.8275 1.82875 7.405 1 8 C0.34 7.67 -0.32 7.34 -1 7 C0.65 5.35 2.3 3.7 4 2 C2.68 1.34 1.36 0.68 0 0 Z " fill="#979797" transform="translate(97,105)"/>
<path d="M0 0 C0.99 0.33 1.98 0.66 3 1 C3 1.66 3 2.32 3 3 C3.598125 3.268125 4.19625 3.53625 4.8125 3.8125 C6.97224808 4.98493467 8.35790256 6.19369282 10 8 C5.17965738 7.58682778 3.09007389 5.61980085 0 2 C0 1.34 0 0.68 0 0 Z " fill="#BBBBBB" transform="translate(58,57)"/>
<path d="M0 0 C3 3.625 3 3.625 3 7 C3.66 7 4.32 7 5 7 C5 8.98 5 10.96 5 13 C1.55834073 8.77614544 0 5.49939416 0 0 Z " fill="#3C3C3C" transform="translate(128,141)"/>
<path d="M0 0 C0 0.99 0 1.98 0 3 C-1.53125 4.38671875 -1.53125 4.38671875 -3.5 5.6875 C-4.47453125 6.34298828 -4.47453125 6.34298828 -5.46875 7.01171875 C-5.9740625 7.33785156 -6.479375 7.66398438 -7 8 C-7.66 7.67 -8.32 7.34 -9 7 C-7.87720538 6.01830524 -6.75168527 5.03972702 -5.625 4.0625 C-4.68527344 3.24458984 -4.68527344 3.24458984 -3.7265625 2.41015625 C-2 1 -2 1 0 0 Z " fill="#555555" transform="translate(70,132)"/>
<path d="M0 0 C0 0.33 0 0.66 0 1 C-0.68707031 1.13277344 -1.37414062 1.26554687 -2.08203125 1.40234375 C-3.43361328 1.66724609 -3.43361328 1.66724609 -4.8125 1.9375 C-6.15248047 2.19853516 -6.15248047 2.19853516 -7.51953125 2.46484375 C-10.11397171 2.97741153 -10.11397171 2.97741153 -13 4 C-13 3.34 -13 2.68 -13 2 C-8.22169095 -0.91360308 -5.44893869 -1.19876651 0 0 Z " fill="#2D2D2D" transform="translate(111,110)"/>
<path d="M0 0 C0.66 0.33 1.32 0.66 2 1 C-3.14285714 6.57142857 -3.14285714 6.57142857 -7 7 C-5.55609075 3.19333016 -3.65047197 1.73397418 0 0 Z " fill="#444444" transform="translate(147,60)"/>
<path d="M0 0 C0.66 0.33 1.32 0.66 2 1 C-2.625 6.875 -2.625 6.875 -6 8 C-4.73058503 4.08597051 -3.48832306 2.20927127 0 0 Z " fill="#8A8A8A" transform="translate(153,168)"/>
<path d="M0 0 C0.33 2.97 0.66 5.94 1 9 C-2 6 -2 6 -3 3 C-3.66 2.34 -4.32 1.68 -5 1 C-1.125 0 -1.125 0 0 0 Z " fill="#3B3B3B" transform="translate(118,116)"/>
<path d="M0 0 C0.66 0 1.32 0 2 0 C2.99 2.97 3.98 5.94 5 9 C4.01 8.67 3.02 8.34 2 8 C0.5522078 5.10441559 0 3.25811062 0 0 Z " fill="#3F3F3F" transform="translate(96,62)"/>
<path d="M0 0 C0.66 0 1.32 0 2 0 C1.67 0.99 1.34 1.98 1 3 C-1.8125 3.6875 -1.8125 3.6875 -5 4 C-6.875 2.5625 -6.875 2.5625 -8 1 C-6.865625 1.020625 -5.73125 1.04125 -4.5625 1.0625 C-1.18424326 1.41577477 -1.18424326 1.41577477 0 0 Z " fill="#ACACAC" transform="translate(81,170)"/>
<path d="M0 0 C0.66 0 1.32 0 2 0 C2 0.66 2 1.32 2 2 C2.66 2 3.32 2 4 2 C4 3.65 4 5.3 4 7 C3.34 7 2.68 7 2 7 C0 4 0 4 0 0 Z " fill="#919191" transform="translate(143,152)"/>
<path d="M0 0 C0 4.01474237 -1.66781767 5.81975137 -4 9 C-4.33 9 -4.66 9 -5 9 C-5 7.35 -5 5.7 -5 4 C-4.34 4 -3.68 4 -3 4 C-3 3.34 -3 2.68 -3 2 C-2.01 1.34 -1.02 0.68 0 0 Z " fill="#828282" transform="translate(108,125)"/>
<path d="M0 0 C3.125 0.375 3.125 0.375 6 1 C6.33 1.99 6.66 2.98 7 4 C2.545 3.01 2.545 3.01 -2 2 C-1.34 1.34 -0.68 0.68 0 0 Z " fill="#3E3E3E" transform="translate(54,86)"/>
</svg>
